<svg width="1442" height="799" viewBox="0 0 1442 799" fill="none" xmlns="http://www.w3.org/2000/svg">
<path d="M1152 38.6123C845.181 116.709 844.5 488.772 443.962 339.555C305.655 288.029 116.83 339.893 0 388.581V432.145C0 432.145 309 290.502 608.5 643.505C908 996.508 1442 605.005 1442 605.005V123.901C1324.5 67.0418 1274.82 7.35068 1152 38.6123Z" fill="url(#paint0_linear_4624_32)"/>
<path d="M1082.5 54.5368C837.5 224.5 1022.54 437.717 622 288.5C483.693 236.975 116.83 281.313 0 330V363C0 363 281 327.497 580.5 680.5C880 1033.5 1442 479.5 1442 479.5V42.9378C1324.5 -13.9213 1186.63 -17.701 1082.5 54.5368Z" fill="url(#paint1_linear_4624_32)"/>
<defs>
<linearGradient id="paint0_linear_4624_32" x1="1320" y1="551.116" x2="189.078" y2="674.162" gradientUnits="userSpaceOnUse">
<stop stop-color="#590D56"/>
<stop offset="1" stop-color="#8C1688"/>
</linearGradient>
<linearGradient id="paint1_linear_4624_32" x1="1320" y1="470.153" x2="189.078" y2="593.199" gradientUnits="userSpaceOnUse">
<stop stop-color="#590D56"/>
<stop offset="1" stop-color="#8C1688"/>
</linearGradient>
</defs>
</svg>
